Archive:  /Users/adpena/Projects/pact/workspace/upstream/comma_video_compression_challenge/submissions/robust_current/archive.zip
  inflating: /Users/adpena/Projects/pact/workspace/upstream/comma_video_compression_challenge/submissions/robust_current/archive/0.mkv  
Inflating /Users/adpena/Projects/pact/workspace/upstream/comma_video_compression_challenge/submissions/robust_current/archive/0.mkv -> /Users/adpena/Projects/pact/workspace/upstream/comma_video_compression_challenge/submissions/robust_current/inflated/0.raw
ffmpeg version 8.1 Copyright (c) 2000-2026 the FFmpeg developers
  built with Apple clang version 17.0.0 (clang-1700.6.4.2)
  configuration: --prefix=/opt/homebrew/Cellar/ffmpeg/8.1 --enable-shared --enable-pthreads --enable-version3 --cc=clang --host-cflags= --host-ldflags= --enable-ffplay --enable-gpl --enable-libsvtav1 --enable-libopus --enable-libx264 --enable-libmp3lame --enable-libdav1d --enable-libvpx --enable-libx265 --enable-openssl --enable-videotoolbox --enable-audiotoolbox --enable-neon
  libavutil      60. 26.100 / 60. 26.100
  libavcodec     62. 28.100 / 62. 28.100
  libavformat    62. 12.100 / 62. 12.100
  libavdevice    62.  3.100 / 62.  3.100
  libavfilter    11. 14.100 / 11. 14.100
  libswscale      9.  5.100 /  9.  5.100
  libswresample   6.  3.100 /  6.  3.100
Input #0, matroska,webm, from '/Users/adpena/Projects/pact/workspace/upstream/comma_video_compression_challenge/submissions/robust_current/archive/0.mkv':
  Metadata:
    SEGMENT         : b0c9d2329ad1606b|2018-07-27--06-03-57/10/video.hevc
    ENCODER         : Lavf62.12.100
  Duration: 00:01:00.00, start: 0.000000, bitrate: 237 kb/s
  Stream #0:0: Video: hevc (Main), yuv420p(tv, progressive), 432x324, 20 fps, 20 tbr, 1k tbn
    Metadata:
      ENCODER         : Lavc62.28.100 libx265
      DURATION        : 00:01:00.000000000
Stream mapping:
  Stream #0:0 -> #0:0 (hevc (native) -> rawvideo (native))
Press [q] to stop, [?] for help
Output #0, rawvideo, to '/Users/adpena/Projects/pact/workspace/upstream/comma_video_compression_challenge/submissions/robust_current/inflated/0.raw':
  Metadata:
    SEGMENT         : b0c9d2329ad1606b|2018-07-27--06-03-57/10/video.hevc
    encoder         : Lavf62.12.100
  Stream #0:0: Video: rawvideo (RGB[24] / 0x18424752), rgb24(pc, gbr/unknown/unknown, progressive), 1164x874, q=2-31, 488321 kb/s, 20 fps, 20 tbn
    Metadata:
      encoder         : Lavc62.28.100 rawvideo
      DURATION        : 00:01:00.000000000
frame=  192 fps=0.0 q=-0.0 size=  569088KiB time=00:00:09.60 bitrate=485621.8kbits/s speed=  19x elapsed=0:00:00.50    frame=  296 fps=292 q=-0.0 size=  879104KiB time=00:00:14.80 bitrate=486595.9kbits/s speed=14.6x elapsed=0:00:01.01    frame=  408 fps=268 q=-0.0 size= 1212928KiB time=00:00:20.40 bitrate=487073.8kbits/s speed=13.4x elapsed=0:00:01.52    frame=  547 fps=269 q=-0.0 size= 1627136KiB time=00:00:27.35 bitrate=487367.4kbits/s speed=13.5x elapsed=0:00:02.03    frame=  649 fps=256 q=-0.0 size= 1931264KiB time=00:00:32.45 bitrate=487547.4kbits/s speed=12.8x elapsed=0:00:02.53    frame=  752 fps=248 q=-0.0 size= 2238208KiB time=00:00:37.60 bitrate=487643.6kbits/s speed=12.4x elapsed=0:00:03.03    frame=  856 fps=242 q=-0.0 size= 2548224KiB time=00:00:42.80 bitrate=487734.8kbits/s speed=12.1x elapsed=0:00:03.53    frame=  975 fps=241 q=-0.0 size= 2902784KiB time=00:00:48.75 bitrate=487786.8kbits/s speed=  12x elapsed=0:00:04.04    frame= 1091 fps=240 q=-0.0 size= 3248640KiB time=00:00:54.55 bitrate=487861.8kbits/s speed=  12x elapsed=0:00:04.55    frame= 1196 fps=237 q=-0.0 size= 3561472KiB time=00:00:59.80 bitrate=487885.9kbits/s speed=11.8x elapsed=0:00:05.05    [out#0/rawvideo @ 0x9ccc10780] video:3576572KiB audio:0KiB subtitle:0KiB other streams:0KiB global headers:0KiB muxing overhead: 0.000000%
frame= 1200 fps=237 q=-0.0 Lsize= 3576572KiB time=00:01:00.00 bitrate=488321.3kbits/s speed=11.9x elapsed=0:00:05.06    
All videos inflated to /Users/adpena/Projects/pact/workspace/upstream/comma_video_compression_challenge/submissions/robust_current/inflated
=== Evaluation config ===
  batch_size: 16
  device: cpu
  num_threads: 2
  prefetch_queue_depth: 4
  report: /Users/adpena/Projects/pact/workspace/upstream/comma_video_compression_challenge/submissions/robust_current/report.txt
  seed: 1234
  submission_dir: /Users/adpena/Projects/pact/workspace/upstream/comma_video_compression_challenge/submissions/robust_current
  uncompressed_dir: /Users/adpena/Projects/pact/workspace/upstream/comma_video_compression_challenge/videos
  video_names_file: /Users/adpena/Projects/pact/workspace/upstream/comma_video_compression_challenge/public_test_video_names.txt
AVVideoDataset on rank 0 with 1 files.
TensorVideoDataset on rank 0 with 1 files.
0it [00:00, ?it/s]/Users/adpena/Projects/pact/workspace/upstream/comma_video_compression_challenge/frame_utils.py:232: UserWarning: The given NumPy array is not writable, and PyTorch does not support non-writable tensors. This means writing to this tensor will result in undefined behavior. You may want to copy the array to protect its data or make it writable before converting it to a tensor. This type of warning will be suppressed for the rest of this program. (Triggered internally at /Users/runner/work/pytorch/pytorch/pytorch/torch/csrc/utils/tensor_numpy.cpp:219.)
  frames = torch.from_numpy(mm)  # (N, H, W, C), shares mmap memory
1it [00:39, 39.74s/it]2it [01:20, 40.36s/it]3it [01:58, 39.36s/it]4it [02:37, 39.25s/it]5it [03:12, 37.75s/it]6it [03:49, 37.51s/it]7it [04:28, 37.82s/it]8it [05:05, 37.74s/it]9it [05:43, 37.79s/it]10it [06:24, 38.58s/it]11it [07:02, 38.54s/it]